<svg xmlns="http://www.w3.org/2000/svg" height="1646.4" version="1" width="1236.4"><path d="M243 1095.77c-11.707 0-21.2-9.493-21.2-21.2 0-11.71 9.493-21.199 21.2-21.199h375.184c11.71 0 21.203 9.488 21.203 21.2 0 11.706-9.492 21.199-21.203 21.199Zm0-152.778c-11.707 0-21.2-9.492-21.2-21.203 0-11.707 9.493-21.2 21.2-21.2h750.367c11.711 0 21.2 9.493 21.2 21.2 0 11.711-9.489 21.203-21.2 21.203Zm0-152.773c-11.707 0-21.2-9.489-21.2-21.2 0-11.707 9.493-21.199 21.2-21.199h750.367c11.711 0 21.2 9.492 21.2 21.2 0 11.71-9.489 21.199-21.2 21.199Zm0-152.77c-11.707 0-21.2-9.492-21.2-21.199s9.493-21.203 21.2-21.203h750.367c11.711 0 21.2 9.496 21.2 21.203 0 11.707-9.489 21.2-21.2 21.2Zm0-152.77c-11.707 0-21.2-9.484-21.2-21.202 0-11.704 9.493-21.192 21.2-21.192h750.367c11.711 0 21.2 9.488 21.2 21.192 0 11.718-9.489 21.203-21.2 21.203Zm0-152.773c-11.707 0-21.2-9.492-21.2-21.199s9.493-21.203 21.2-21.203h750.367c11.711 0 21.2 9.496 21.2 21.203 0 11.707-9.489 21.2-21.2 21.2ZM122.96.004c-19.765 1.242-37.394 4.582-53.144 12.191C53.703 20 39.508 31.223 28.203 44.91c-5.168 6.3-9.648 12.977-13.285 19.613a121.955 121.955 0 0 0-5.2 10.739C5.708 85.516 2.946 94.543 1.427 104.32A122.364 122.364 0 0 0 0 122.965V1523.46c0 6.332.488 12.555 1.426 18.64 3.367 21.903 13.781 43.454 26.777 59.419a124.647 124.647 0 0 0 36.313 29.984c18.027 9.18 41.254 14.766 58.445 14.918h735.16l13.754-13.754c8.953-8.504 14.656-14.648 23.543-23.543l340.957-340.953V122.965c-.234-9.371-1.363-19.676-3.172-27.653-4.84-20.757-14.98-39.566-28.91-54.878a125.301 125.301 0 0 0-12.828-12.23c-21.281-17.587-48.512-28.2-78.055-28.2Zm0 42.402h990.45c44.402 0 80.55 36.16 80.55 80.559v1110.992c0 9.14-1.929 13.129-4.694 16.395-2.77 3.27-7.657 6.445-16.04 8.91-16.757 4.933-45.445 5.254-76.976 3.976-31.535-1.281-66.09-3.691-98.414-.828-32.32 2.863-64.281 10.977-85.676 35.723-46.996 54.36-38.14 137.496-38.937 203.418-.399 32.96-3.008 61.879-10.301 78.785-4.14 9.25-12.633 17.941-20.242 21.566-4.832 1.446-10.895 2.118-18.778 2.118H122.957c-11.66-.91-21.672-2.415-31.316-6.34-24.086-10.211-42.223-31.817-47.602-58.008a84.097 84.097 0 0 1-1.64-16.211V122.965c-.016-5.453.609-11.14 1.64-16.211 5.645-27.504 25.36-49.945 51.254-59.45 8.89-3.222 19.18-4.859 27.664-4.898Zm911.563 1261.13c19.262.132 39.817 1.25 60.008 2.066 14.887.605 29.555 1.136 43.696.761l-223.344 223.34c.441-9.058.629-18.289.742-27.64.828-68.551-.938-142.024 28.621-176.204 10.215-11.816 29.926-18.789 57.34-21.214 10.281-.91 21.371-1.188 32.937-1.11" fill="#fff"/></svg>