<svg xmlns="http://www.w3.org/2000/svg" fill="#fff" height="471.7" version="1" width="471.7"><path d="M235.838 471.675c-62.995 0-122.219-24.531-166.763-69.075S0 298.833 0 235.838 24.531 113.619 69.075 69.075 172.843 0 235.838 0 358.056 24.531 402.6 69.075s69.075 103.768 69.075 166.763S447.144 358.056 402.6 402.6s-103.767 69.075-166.762 69.075zm0-456.675C176.85 15 121.393 37.971 79.682 79.682 37.972 121.392 15 176.85 15 235.838s22.971 114.445 64.682 156.156c41.71 41.71 97.168 64.681 156.156 64.681s114.445-22.97 156.156-64.681 64.681-97.168 64.681-156.156-22.97-114.445-64.681-156.156C350.283 37.972 294.826 15 235.838 15zm-27.065 308.485a7.498 7.498 0 0 0 5.498-3.25l112.5-165.472a7.5 7.5 0 0 0-12.404-8.434L206.962 304.305l-55.409-55.409a7.5 7.5 0 0 0-10.606 10.607l61.818 61.819a7.499 7.499 0 0 0 6.008 2.163z" fill="inherit"/></svg>