<svg xmlns="http://www.w3.org/2000/svg" fill="none" style="fill:none" version="1.0" viewBox="1 1 30 30" aria-label="email icon"><path clip-rule="evenodd" d="M16 31c8.284 0 15-6.716 15-15 0-8.284-6.716-15-15-15C7.716 1 1 7.716 1 16c0 8.284 6.716 15 15 15ZM9.187 9.618 16 15.068l6.813-5.45.196-.163H8.991l.196.163Zm14.551 1.123.262-.218v11.295a.727.727 0 0 1-.727.727H8.727A.727.727 0 0 1 8 21.819V10.522l.262.219.01.009 7.274 5.818a.727.727 0 0 0 .908 0l7.273-5.818.011-.01Z" fill-rule="evenodd" style="fill:#9b9b9b"/></svg>