<svg xmlns="http://www.w3.org/2000/svg" version="1.0" viewBox="0 0 231 231" style="fill:#9b9b9b" aria-label="Simple Instagram Icon"><path d="M115.5 89.9c-14.1 0-25.6 11.5-25.6 25.6 0 14.1 11.5 25.6 25.6 25.6 14.1 0 25.6-11.5 25.6-25.6 0-14.1-11.5-25.6-25.6-25.6z" style="fill:inherit"/><path d="M149.9 52.7H81.1c-15.6 0-28.4 12.7-28.4 28.4v68.8c0 15.6 12.7 28.4 28.4 28.4h68.8c15.6 0 28.4-12.7 28.4-28.4V81.1c-.1-15.7-12.8-28.4-28.4-28.4zM115.5 154c-21.3 0-38.6-17.3-38.6-38.6s17.3-38.6 38.6-38.6 38.6 17.3 38.6 38.6c-.1 21.3-17.4 38.6-38.6 38.6zm41.3-70.7c-5.1 0-9.3-4.2-9.3-9.3 0-5.1 4.2-9.3 9.3-9.3 5.1 0 9.3 4.2 9.3 9.3 0 5.2-4.1 9.3-9.3 9.3z" style="fill:inherit"/><path d="M115.5 0C51.7 0 0 51.7 0 115.5S51.7 231 115.5 231 231 179.3 231 115.5C230.9 51.7 179.2 0 115.5 0zm75.7 149.9c0 22.8-18.6 41.4-41.4 41.4H81.1c-22.8 0-41.4-18.6-41.4-41.4V81.1c0-22.8 18.6-41.4 41.4-41.4h68.8c22.8 0 41.4 18.6 41.4 41.4v68.8z" style="fill:inherit"/></svg>