<svg xmlns="http://www.w3.org/2000/svg" data-name="Circular Glyph" version="1.0" viewBox="0 0 64 64" style="fill:#9b9b9b" aria-label="location glyph icon"><path d="M24.06 26.84a7.94 7.94 0 0 0 15.88 0c-.43-10.54-15.45-10.54-15.88 0ZM32 32.67a5.835 5.835 0 1 1 5.84-5.83A5.835 5.835 0 0 1 32 32.67Z" style="fill:inherit"/><path d="M32 0a32 32 0 1 0 32 32A32.004 32.004 0 0 0 32 0Zm.64 51.78a1.05 1.05 0 0 1-1.28 0c-.58-.44-14.19-11-14.19-24.94a14.83 14.83 0 1 1 29.66 0c0 13.94-13.61 24.5-14.19 24.94Z" style="fill:inherit"/></svg>