<svg xmlns="http://www.w3.org/2000/svg" height="185.2" version="1" width="116.1"><g fill="#fff"><path d="M104.5 185.2H11.6C5.2 185.2 0 180 0 173.6v-162C0 5.2 5.2 0 11.6 0h92.8c6.4 0 11.6 5.2 11.6 11.6v161.9c.1 6.5-5.1 11.7-11.5 11.7zM11.6 3.2C7 3.2 3.2 7 3.2 11.6v161.9c0 4.6 3.8 8.4 8.4 8.4h92.8c4.6 0 8.4-3.8 8.4-8.4V11.6c0-4.6-3.8-8.4-8.4-8.4H11.6z"/><path d="M99.5 146.6H16.6c-.9 0-1.6-.7-1.6-1.6V21.8c0-3.8 3.1-6.8 6.8-6.8h72.5c3.8 0 6.8 3.1 6.8 6.8V145c0 .9-.7 1.6-1.6 1.6zm-81.3-3.2h79.7V21.8c0-2-1.6-3.6-3.6-3.6H21.7c-2 0-3.6 1.6-3.6 3.6v121.6zM58.1 174.8c-5.8 0-10.5-4.7-10.5-10.5s4.7-10.5 10.5-10.5 10.5 4.7 10.5 10.5-4.8 10.5-10.5 10.5zm0-17.8c-4 0-7.3 3.3-7.3 7.3s3.3 7.3 7.3 7.3 7.3-3.3 7.3-7.3-3.3-7.3-7.3-7.3z"/></g></svg>