<svg xmlns="http://www.w3.org/2000/svg" version="1.0" viewBox="0 0 231 231" style="fill:#9b9b9b" aria-label="Simple Viber Icon"><path d="M117.9 53c-33.7 0-61.1 27.4-61.1 61.1 0 11.8 3.4 23.2 9.7 33.1l1.5 2.3-5.9 21.2 22.4-5.3 2.1 1.3c9.4 5.6 20.3 8.6 31.3 8.6 33.7 0 61.1-27.4 61.1-61.1S151.6 53 117.9 53zm34.8 87.4c-.6 3-7 6.8-11.1 7.9-10.2 2.7-24.6-5.1-38.8-17.5-14.3-12.4-23.9-25.6-22.7-36.1.5-4.2 3.5-11.1 6.3-12 2.8-.9 4.8 0 7.7.9 1.4 1.6 3.2 3.5 5.2 5.8 2.7 3 4.5 5.7 5.6 7.6.9 1.6.6 3.6-.8 4.8l-4.9 4.4c-.9.8-1.2 2.1-.7 3.2 1.5 3.2 5 9.8 10.3 14.4 5.2 4.6 12.3 7.2 15.7 8.2 1.1.4 2.4-.1 3-1.1l3.7-5.4c1-1.5 3-2.1 4.7-1.4 2 .9 5 2.3 8.3 4.5 2.5 1.7 4.7 3.2 6.4 4.4 1.5 2.7 2.7 4.6 2.1 7.4z" style="fill:inherit"/><path d="M115.5 0C51.7 0 0 51.7 0 115.5S51.7 231 115.5 231 231 179.3 231 115.5C230.9 51.7 179.2 0 115.5 0zm2.4 187.2c-12.4 0-24.5-3.1-35.3-9.1L45.1 187l9.9-35.7C48.3 140 44.8 127.2 44.8 114c0-40.3 32.8-73.1 73.1-73.1S191 73.8 191 114.1c0 40.3-32.8 73.1-73.1 73.1z" style="fill:inherit"/></svg>